<?xml version="1.0" standalone="no"?>
<!DOCTYPE svg PUBLIC "-//W3C//DTD SVG 20010904//EN"
 "http://www.w3.org/TR/2001/REC-SVG-20010904/DTD/svg10.dtd">
<svg version="1.0" xmlns="http://www.w3.org/2000/svg"
 width="512.000000pt" height="512.000000pt" viewBox="0 0 512.000000 512.000000"
 preserveAspectRatio="xMidYMid meet">
<metadata>
Created by potrace 1.14, written by Peter Selinger 2001-2017
</metadata>
<g transform="translate(0.000000,512.000000) scale(0.100000,-0.100000)"
fill="#000000" stroke="none">
<path d="M2175 5101 c-49 -22 -88 -60 -111 -109 -22 -46 -27 -287 -7 -354 20
-69 85 -126 161 -143 l32 -7 0 -108 c0 -60 -3 -111 -7 -113 -5 -3 -28 -8 -53
-11 -207 -28 -509 -139 -717 -264 -45 -27 -85 -46 -90 -43 -4 3 -38 40 -75 82
l-67 75 25 50 c33 62 29 141 -9 200 -63 100 -162 161 -246 151 -33 -4 -99 -31
-111 -46 -3 -4 -59 -54 -125 -111 -66 -58 -122 -108 -125 -111 -3 -4 -25 -23
-50 -44 -88 -73 -171 -159 -186 -193 -17 -41 -17 -105 -1 -150 21 -55 98 -139
155 -168 44 -22 61 -26 102 -21 27 3 61 12 76 20 26 14 28 13 101 -69 l74 -84
-59 -77 c-50 -67 -75 -104 -150 -218 -38 -59 -146 -295 -180 -396 -37 -106
-78 -267 -88 -344 -2 -16 -6 -46 -8 -65 -14 -97 -18 -156 -18 -275 0 -71 3
-155 6 -185 3 -30 8 -80 11 -110 8 -81 43 -242 75 -345 109 -352 300 -659 571
-919 86 -83 315 -266 333 -266 3 0 29 -15 58 -34 147 -94 466 -218 643 -251
17 -3 44 -8 60 -11 112 -21 262 -31 425 -29 102 2 196 5 210 8 14 3 43 8 66
11 149 19 409 93 437 124 10 10 17 33 17 50 0 18 5 32 11 32 6 0 40 14 76 30
57 27 66 28 79 15 31 -31 61 -29 131 10 62 34 240 155 288 197 11 9 31 26 45
38 145 124 297 300 402 465 39 61 60 96 106 181 114 208 208 542 229 809 40
534 -116 1059 -439 1478 l-61 79 35 36 c80 85 108 117 108 125 0 4 14 0 31 -8
108 -56 220 -11 317 129 23 34 27 49 27 111 0 62 -4 77 -28 112 -15 22 -43 49
-62 59 -30 16 -40 17 -66 7 -31 -12 -34 -10 -90 38 -58 50 -58 51 -53 94 7 48
12 41 -101 142 -119 105 -127 111 -171 123 -48 14 -110 8 -153 -14 -44 -23
-112 -98 -137 -151 -31 -64 -30 -119 1 -180 l24 -48 -31 -36 c-17 -20 -50 -57
-73 -83 l-41 -46 -85 50 c-205 121 -424 205 -664 253 l-110 22 -3 111 -3 110
33 7 c81 17 149 83 166 161 5 21 7 100 6 174 -2 143 -7 164 -58 220 -57 65
-55 65 -446 67 -326 2 -358 1 -395 -16z"/>
</g>
</svg>
